PathFileType  4	(X/Y/Z) C:\Users\antoi\Documents\MyRepositories\mobilecap\ResultsAnalysis
DataRate	CameraRate	NumFrames	NumMarkers	Units	OrigDataRate	OrigDataStartFrame	OrigNumFrames
100.0	100.0	5	51	mm	100.0	25	197
Frame#	Time	r_knee			r_shank_antsup			r_ankle			r_calc			r_5meta			r_toe			L_knee			L_shank_antsup			L_ankle			L_calc			L_5meta			L_toe			r_sh2			r_sh3			r_sh4			L_sh2			L_sh3			r_thigh1			r_thigh2			r_thigh3			r_thigh4			r_thigh5			L_thigh1			L_thigh2			L_thigh3			L_thigh4			r.ASIS			r.PSIS			L.ASIS			L.PSIS			C7			R_Shoulder			L_Shoulder			R_Sternum			L_Sternum			R_humerus			R_elbow_med			R_elbow_lat			R_forearm			R_wrist_radius			R_wrist_ulna			L_humerus			L_elbow_med			L_elbow_lat			L_forearm			L_wrist_radius			L_wrist_ulna			R_HJC			L_HJC			R_HJC_reg			L_HJC_reg			
		X1	Y1	Z1	X2	Y2	Z2	X3	Y3	Z3	X4	Y4	Z4	X5	Y5	Z5	X6	Y6	Z6	X7	Y7	Z7	X8	Y8	Z8	X9	Y9	Z9	X10	Y10	Z10	X11	Y11	Z11	X12	Y12	Z12	X13	Y13	Z13	X14	Y14	Z14	X15	Y15	Z15	X16	Y16	Z16	X17	Y17	Z17	X18	Y18	Z18	X19	Y19	Z19	X20	Y20	Z20	X21	Y21	Z21	X22	Y22	Z22	X23	Y23	Z23	X24	Y24	Z24	X25	Y25	Z25	X26	Y26	Z26	X27	Y27	Z27	X28	Y28	Z28	X29	Y29	Z29	X30	Y30	Z30	X31	Y31	Z31	X32	Y32	Z32	X33	Y33	Z33	X34	Y34	Z34	X35	Y35	Z35	X36	Y36	Z36	X37	Y37	Z37	X38	Y38	Z38	X39	Y39	Z39	X40	Y40	Z40	X41	Y41	Z41	X42	Y42	Z42	X43	Y43	Z43	X44	Y44	Z44	X45	Y45	Z45	X46	Y46	Z46	X47	Y47	Z47	X48	Y48	Z48	X49	Y49	Z49	X50	Y50	Z50	X51	Y51	Z51	

25	0.24000000	-961.97284	748.75787	-465.23294	-945.73252	668.25559	-497.86857	-1164.82987	406.10392	-486.09354	-1249.45575	378.80385	-509.37499	-1067.92198	350.96901	-467.26615	-1028.56809	370.89894	-533.84897	-967.04417	745.69605	-728.35717	-970.13392	650.09222	-732.14129	-1186.92356	426.52390	-682.26645	-1253.71383	396.59221	-624.97647	-1111.42968	353.57915	-744.69435	-1056.63802	370.15331	-700.04403	-1011.30112	575.62437	-472.24746	-998.18465	711.79314	-446.17875	-1065.09750	620.40003	-439.96556	-1039.74080	706.06042	-730.75806	-1106.92101	603.00316	-727.56341	-995.76051	1065.49707	-408.08973	-965.61020	957.95473	-425.65018	-1010.18343	916.58466	-398.01112	-1101.84471	1032.07576	-385.15433	-1065.88328	920.77985	-403.57989	-1041.06985	1004.08584	-776.36964	-976.11634	882.37365	-757.64046	-1135.44274	958.08092	-722.51913	-1065.84030	835.25371	-718.11900	-1001.79311	1171.54676	-446.70279	-1159.08221	1283.95792	-523.28522	-1012.64421	1140.27861	-692.81429	-1164.59229	1281.72692	-625.94822	-916.86108	1614.36696	-571.38422	-843.53432	1514.83612	-399.79141	-838.22240	1545.57116	-744.04433	-805.56632	1513.55088	-558.12516	-816.93235	1501.98560	-581.71835	-893.54409	1391.85579	-335.37898	-1015.54951	1207.07622	-373.81161	-996.81945	1219.27864	-303.67760	-898.06178	1114.01729	-309.63141	-827.03839	1009.02946	-328.11002	-846.17174	986.87283	-308.69535	-867.99886	1432.05566	-806.07448	-1002.94386	1232.08858	-769.85713	-966.45578	1243.61651	-838.47730	-896.12676	1152.02693	-818.18416	-838.24477	1011.86555	-803.59459	-861.91156	1000.60957	-826.59599	-1106.77204	1132.50056	-459.91989	-1116.50760	1114.18396	-665.34578	-1099.76416	1124.08537	-474.70125	-1108.54514	1120.53112	-638.32678	
26	0.25000000	-956.52227	745.85922	-464.25107	-941.04829	665.28582	-496.29289	-1164.11794	406.13188	-486.27813	-1248.53672	378.25389	-511.04063	-1067.78978	350.65774	-467.12268	-1028.03453	370.16803	-533.66399	-953.74852	745.78866	-728.17084	-959.06047	650.36319	-731.31001	-1181.17512	432.93067	-682.58297	-1248.76141	406.99517	-625.05667	-1109.39461	355.57701	-744.82202	-1053.77985	369.64001	-700.01971	-1008.09319	572.83220	-471.99790	-993.47447	708.94071	-445.33283	-1061.52540	618.53890	-439.60610	-1026.89036	708.35782	-730.84768	-1096.66920	607.05367	-727.64047	-989.91474	1062.65383	-407.56874	-959.90894	955.14800	-424.22877	-1004.81055	914.22277	-396.62244	-1096.29538	1029.46346	-385.43075	-1060.48308	918.57661	-402.70025	-1032.64173	1002.53144	-775.39019	-965.13932	882.01321	-756.59796	-1126.06674	954.71534	-722.22729	-1053.99639	833.24139	-717.91706	-996.56025	1170.59754	-445.71440	-1154.24895	1280.51200	-523.52378	-1006.11866	1137.94876	-692.35450	-1159.77380	1277.83077	-626.18743	-915.24917	1613.31070	-569.55703	-841.91063	1514.92699	-397.14843	-834.80489	1545.79729	-741.49232	-802.69929	1513.74800	-555.65738	-814.13276	1501.03714	-578.90519	-891.22922	1392.55966	-331.65627	-1003.28464	1202.98548	-371.30099	-988.10639	1216.52233	-299.97406	-881.27316	1118.36442	-305.47179	-802.09726	1019.85978	-324.25335	-819.59419	995.69485	-305.64100	-864.43301	1433.40778	-805.12464	-997.54335	1231.94159	-770.07114	-962.22259	1244.93990	-839.39661	-887.72267	1156.35286	-818.77401	-822.99647	1019.94268	-803.66189	-846.16396	1007.22249	-826.48204	-1100.79046	1130.09836	-459.35994	-1109.68566	1110.76350	-664.73194	-1093.54729	1121.67355	-473.60117	-1102.37425	1117.38881	-637.62964	
27	0.26000000	-952.15438	742.97060	-463.06643	-936.95708	662.71371	-494.19780	-1163.62843	406.11411	-486.38878	-1247.53888	377.73113	-512.38024	-1067.72823	350.33167	-466.89571	-1027.63051	369.54226	-533.53055	-939.14533	747.13478	-728.10693	-946.66856	651.89173	-731.10716	-1174.07839	440.69728	-683.10038	-1242.65057	419.43584	-625.42625	-1106.78543	358.42804	-744.97878	-1050.41882	369.35429	-700.06947	-1005.55347	570.34064	-471.29799	-989.75848	706.28056	-444.70974	-1058.65317	616.64502	-439.23838	-1012.76714	711.93675	-731.09540	-1085.25119	612.48616	-727.60131	-984.10692	1059.76536	-406.82756	-954.34377	951.76124	-423.16897	-1000.06210	911.97446	-395.19042	-1090.95079	1027.18365	-385.88403	-1055.63372	916.25484	-402.54731	-1023.21310	1002.12213	-774.31671	-953.16378	883.03583	-755.83437	-1115.85853	952.05128	-721.81258	-1040.94933	832.16402	-717.82478	-989.86510	1169.09342	-444.84971	-1148.98137	1277.51036	-524.01591	-999.02308	1136.54082	-691.98862	-1154.56120	1274.50200	-626.52624	-914.20485	1612.92046	-567.84240	-840.22944	1516.32615	-394.79199	-831.87622	1547.07039	-739.26345	-800.07991	1515.17120	-553.25322	-811.38003	1501.40571	-576.39023	-888.46173	1394.38426	-328.04346	-992.11222	1199.72807	-366.98182	-978.32483	1214.84853	-295.71216	-863.60510	1125.03574	-301.10639	-776.21290	1034.29765	-320.27817	-791.75284	1008.06918	-302.64473	-861.03821	1435.55248	-803.86222	-992.85840	1232.97948	-770.49788	-958.79632	1247.39519	-840.52745	-879.61570	1162.52877	-819.87540	-807.26121	1030.72368	-803.19924	-829.90906	1016.52769	-825.87537	-1093.97774	1127.68254	-459.20209	-1102.17565	1107.99450	-664.56847	-1086.39124	1119.55984	-472.65220	-1095.33640	1114.73770	-636.96925	
28	0.27000000	-948.78582	740.12939	-461.83550	-933.39115	660.11357	-492.46363	-1163.16096	406.16976	-486.49886	-1247.43276	378.39982	-512.03479	-1067.69065	350.06576	-466.57628	-1027.24635	368.98832	-533.31272	-923.50538	749.67128	-728.39056	-933.07107	654.74931	-731.61609	-1165.51926	449.52739	-683.79893	-1235.01336	433.51023	-626.31067	-1103.48279	361.79966	-744.97550	-1046.68799	369.09890	-700.11237	-1003.42255	568.76253	-469.72991	-986.40988	704.02305	-443.99406	-1056.15041	615.03529	-438.73109	-997.57216	716.48127	-731.22088	-1072.60539	619.00090	-727.49220	-978.29936	1057.11712	-405.66992	-948.97730	948.17046	-422.62291	-995.93168	909.76628	-393.97312	-1085.78815	1025.62814	-386.12551	-1051.27595	914.25942	-402.52223	-1013.10630	1002.61493	-773.35311	-940.31786	885.29524	-755.43778	-1104.81487	950.01535	-721.11844	-1026.79585	832.00203	-717.79352	-982.41961	1168.06272	-443.95657	-1143.34227	1275.12863	-524.35630	-991.35219	1136.02884	-691.57026	-1148.72931	1271.89315	-626.85101	-913.64199	1613.26198	-566.16666	-838.37358	1518.97298	-392.62232	-829.44683	1549.55441	-737.37385	-797.65824	1517.74667	-550.98100	-808.58139	1503.11755	-574.08656	-884.84904	1397.16145	-324.67081	-980.35582	1197.69452	-361.86945	-967.28084	1214.24443	-291.19920	-845.12188	1134.15846	-296.76954	-749.88411	1052.14747	-316.33557	-763.07752	1024.05486	-299.63827	-858.10807	1438.62756	-802.84072	-988.49000	1235.20270	-771.43139	-955.62597	1250.98096	-842.09641	-871.70232	1170.54329	-821.17908	-791.21089	1044.18917	-802.34230	-813.23256	1028.46165	-825.00357	-1086.54634	1125.79775	-459.09152	-1094.01758	1106.02132	-664.47770	-1078.75829	1117.92595	-471.94119	-1087.41180	1112.73218	-636.52301	
29	0.28000000	-945.92381	737.55830	-460.61183	-930.23316	657.43090	-491.34815	-1162.53577	406.26456	-486.72672	-1247.88894	379.46279	-511.29425	-1067.63472	349.87034	-466.27155	-1026.78230	368.48991	-532.92841	-907.11446	753.31233	-729.06534	-918.53502	658.76170	-732.32488	-1155.20369	459.01154	-684.83969	-1224.84025	448.64090	-627.38277	-1099.29450	365.58403	-745.01433	-1042.33796	368.70580	-700.14946	-1001.43455	567.83286	-467.90884	-983.15464	701.88042	-443.08876	-1053.75290	613.65572	-438.29947	-981.51375	721.81964	-731.20907	-1058.79609	626.21906	-727.50387	-972.36579	1054.99348	-404.23962	-944.18386	945.46534	-421.46081	-992.14612	907.80393	-392.95351	-1080.61145	1024.81688	-386.31873	-1047.22777	912.93337	-402.28622	-1002.55515	1003.82129	-772.70860	-926.63934	888.46769	-755.22260	-1092.84438	948.79349	-720.92637	-1011.71398	832.84396	-718.19082	-975.22314	1167.91450	-443.05206	-1137.27264	1273.38311	-524.47897	-983.06229	1136.51037	-690.89126	-1142.26288	1269.99616	-627.04216	-913.32147	1614.47660	-564.43817	-836.30920	1522.79965	-390.62383	-827.49136	1553.32026	-735.45196	-795.36959	1521.48502	-548.86945	-805.74398	1506.13849	-571.99335	-879.97704	1400.80993	-321.55089	-966.62796	1196.91340	-356.96539	-954.79031	1214.78909	-286.58290	-826.00063	1145.64919	-292.60316	-723.73818	1072.91051	-312.93057	-734.14317	1043.67721	-296.40268	-855.78134	1443.01654	-802.35738	-984.24890	1238.27752	-773.31538	-952.27072	1255.79083	-844.36472	-863.86334	1180.42970	-822.42962	-775.20198	1060.27042	-801.86548	-796.20259	1042.97604	-824.68891	-1078.98147	1124.58474	-458.97307	-1085.26586	1104.97840	-664.41547	-1071.01238	1117.18959	-471.40736	-1079.02811	1111.75301	-636.08359	
